<svg xmlns="http://www.w3.org/2000/svg" viewBox="0 0 256 256" role="img" aria-label="Bush Early Girl tomato botanical illustration"><defs><radialGradient id="bg" cx="45%" cy="28%" r="75%"><stop offset="0" stop-color="#fff7dd"/><stop offset="1" stop-color="#dfeccc"/></radialGradient><filter id="s"><feDropShadow dx="0" dy="7" stdDeviation="5" flood-color="#4a301b" flood-opacity=".25"/></filter></defs><rect width="256" height="256" rx="28" fill="url(#bg)"/><path d="M34 212 Q128 168 222 212 L207 230 H49Z" fill="#9a693d"/><path d="M57 205 Q128 179 199 205 L189 219 H67Z" fill="#5a3522"/><g filter="url(#s)"><g fill="#477d35"><ellipse cx="109" cy="102" rx="34" ry="18" transform="rotate(-30 109 102)"/><ellipse cx="145" cy="99" rx="34" ry="18" transform="rotate(28 145 99)"/><ellipse cx="93" cy="137" rx="38" ry="19" transform="rotate(18 93 137)"/><ellipse cx="162" cy="137" rx="39" ry="20" transform="rotate(-18 162 137)"/><ellipse cx="128" cy="78" rx="28" ry="15" transform="rotate(86 128 78)"/></g><path d="M128 79 C125 125 123 155 118 198 M104 105 C132 125 152 145 176 176 M154 98 C129 125 108 150 82 177" stroke="#315d25" stroke-width="6" fill="none" stroke-linecap="round"/><g fill="#d84625" stroke="#8f2518" stroke-width="3"><circle cx="94" cy="123" r="22"/><circle cx="129" cy="119" r="25"/><circle cx="160" cy="134" r="22"/><circle cx="113" cy="158" r="23"/><circle cx="150" cy="165" r="20"/></g><g fill="#f6a36f" opacity=".65"><ellipse cx="86" cy="113" rx="6" ry="10" transform="rotate(40 86 113)"/><ellipse cx="121" cy="107" rx="6" ry="12" transform="rotate(40 121 107)"/><ellipse cx="153" cy="124" rx="5" ry="10" transform="rotate(40 153 124)"/></g></g></svg>