<svg xmlns="http://www.w3.org/2000/svg" viewBox="0 0 256 256"><defs><radialGradient id="bg" cx="45%" cy="28%" r="75%"><stop offset="0" stop-color="#fff7dd"/><stop offset="1" stop-color="#dfeccc"/></radialGradient></defs><rect width="256" height="256" rx="28" fill="url(#bg)"/><path d="M34 214 Q128 172 222 214 L206 231 H50Z" fill="#8c5d38"/><g fill="#4a8b3d"><ellipse cx="96" cy="104" rx="34" ry="18" transform="rotate(-28 96 104)"/><ellipse cx="160" cy="106" rx="36" ry="18" transform="rotate(24 160 106)"/><ellipse cx="90" cy="150" rx="30" ry="15" transform="rotate(16 90 150)"/><ellipse cx="170" cy="150" rx="30" ry="15" transform="rotate(-16 170 150)"/></g><path d="M128 82 C128 118 128 152 128 194" stroke="#2f5d25" stroke-width="6" fill="none" stroke-linecap="round"/><g fill="#3d8f36" stroke="#236122" stroke-width="2"><path d="M90 112 C112 106 118 130 106 152 C92 177 72 175 68 155 C64 136 74 117 90 112Z"/><path d="M150 108 C172 100 184 121 176 145 C166 171 144 176 136 158 C128 139 132 116 150 108Z"/><path d="M120 148 C140 142 149 160 142 181 C134 200 114 201 108 184 C102 166 104 152 120 148Z"/></g></svg>