<svg xmlns="http://www.w3.org/2000/svg" viewBox="0 0 256 256"><defs><radialGradient id="bg" cx="45%" cy="28%" r="75%"><stop offset="0" stop-color="#fff7dd"/><stop offset="1" stop-color="#dfeccc"/></radialGradient></defs><rect width="256" height="256" rx="28" fill="url(#bg)"/><path d="M34 214 Q128 170 222 214 L206 231 H50Z" fill="#8b5c36"/><g fill="#4f9442"><ellipse cx="92" cy="150" rx="32" ry="18" transform="rotate(12 92 150)"/><ellipse cx="164" cy="150" rx="32" ry="18" transform="rotate(-12 164 150)"/><ellipse cx="128" cy="176" rx="42" ry="20"/></g><g><circle cx="94" cy="110" r="28" fill="#f2a21f"/><circle cx="94" cy="110" r="18" fill="#ffd34f"/><circle cx="160" cy="104" r="26" fill="#ef8f12"/><circle cx="160" cy="104" r="16" fill="#ffd34f"/><circle cx="128" cy="146" r="30" fill="#f39a1b"/><circle cx="128" cy="146" r="18" fill="#ffd34f"/></g><path d="M94 138 C100 156 106 171 110 196 M160 130 C154 150 146 170 140 196 M128 176 C128 182 128 188 128 196" stroke="#2f5d25" stroke-width="5" fill="none" stroke-linecap="round"/></svg>