<svg xmlns="http://www.w3.org/2000/svg" viewBox="0 0 256 256" role="img" aria-label="Roma tomato botanical illustration"><defs><radialGradient id="bg" cx="45%" cy="28%" r="75%"><stop offset="0" stop-color="#fff7dd"/><stop offset="1" stop-color="#dfeccc"/></radialGradient><filter id="s"><feDropShadow dx="0" dy="7" stdDeviation="5" flood-color="#4a301b" flood-opacity=".25"/></filter></defs><rect width="256" height="256" rx="28" fill="url(#bg)"/><path d="M35 212 Q128 169 221 212 L207 230 H49Z" fill="#9a693d"/><path d="M58 204 Q128 178 198 204 L188 219 H68Z" fill="#5a3522"/><g filter="url(#s)"><path d="M128 76 C126 116 124 156 120 198 M94 108 C123 130 145 151 174 178 M158 106 C131 131 106 152 80 178" stroke="#315d25" stroke-width="6" fill="none" stroke-linecap="round"/><g fill="#477d35"><ellipse cx="101" cy="104" rx="34" ry="17" transform="rotate(-28 101 104)"/><ellipse cx="152" cy="102" rx="35" ry="18" transform="rotate(27 152 102)"/><ellipse cx="91" cy="142" rx="35" ry="18" transform="rotate(18 91 142)"/><ellipse cx="165" cy="141" rx="36" ry="18" transform="rotate(-19 165 141)"/></g><g fill="#cf3e25" stroke="#8f2518" stroke-width="3"><ellipse cx="102" cy="126" rx="16" ry="30" transform="rotate(-12 102 126)"/><ellipse cx="135" cy="119" rx="17" ry="33" transform="rotate(8 135 119)"/><ellipse cx="165" cy="137" rx="15" ry="29" transform="rotate(17 165 137)"/><ellipse cx="121" cy="166" rx="16" ry="30" transform="rotate(-8 121 166)"/><ellipse cx="154" cy="170" rx="15" ry="28" transform="rotate(11 154 170)"/></g><g fill="#f6a36f" opacity=".6"><ellipse cx="97" cy="113" rx="4" ry="11" transform="rotate(25 97 113)"/><ellipse cx="130" cy="106" rx="4" ry="12" transform="rotate(25 130 106)"/></g></g></svg>