<svg xmlns="http://www.w3.org/2000/svg" viewBox="0 0 256 256"><defs><radialGradient id="bg" cx="45%" cy="28%" r="75%"><stop offset="0" stop-color="#fff7dd"/><stop offset="1" stop-color="#dfeccc"/></radialGradient></defs><rect width="256" height="256" rx="28" fill="url(#bg)"/><path d="M34 214 Q128 170 222 214 L206 231 H50Z" fill="#8a5935"/><g stroke="#2f5d25" stroke-width="5" fill="none" stroke-linecap="round"><path d="M128 82 C128 124 128 160 128 198"/><path d="M128 114 C95 116 76 132 58 160"/><path d="M128 108 C164 112 184 130 199 160"/></g><g fill="#4f9442"><path d="M88 104 C112 82 142 94 146 120 C148 145 122 158 98 150 C74 142 66 122 88 104Z"/><path d="M166 112 C188 94 210 112 202 138 C194 160 168 164 154 148 C140 132 146 120 166 112Z"/><path d="M90 156 C118 138 144 154 142 178 C140 198 112 206 90 194 C68 182 68 170 90 156Z"/></g><g fill="#6cb34f" stroke="#38742e" stroke-width="2"><rect x="96" y="116" width="64" height="20" rx="10" transform="rotate(-12 128 126)"/><rect x="82" y="160" width="74" height="22" rx="11" transform="rotate(8 119 171)"/></g></svg>