<svg xmlns="http://www.w3.org/2000/svg" viewBox="0 0 256 256"><defs><radialGradient id="bg" cx="45%" cy="28%" r="75%"><stop offset="0" stop-color="#fff7dd"/><stop offset="1" stop-color="#dfeccc"/></radialGradient></defs><rect width="256" height="256" rx="28" fill="url(#bg)"/><circle cx="188" cy="64" r="26" fill="#f7d45f" opacity=".55"/><path d="M35 214 Q128 170 221 214 L205 231 H51Z" fill="#8a5a36"/><g stroke="#315d25" stroke-width="5" fill="none" stroke-linecap="round"><path d="M128 72 C128 120 128 156 128 196"/><path d="M128 104 C92 122 73 145 59 176"/><path d="M128 100 C164 120 181 142 196 176"/></g><g fill="#4b8d3a"><ellipse cx="100" cy="102" rx="32" ry="16" transform="rotate(-26 100 102)"/><ellipse cx="156" cy="102" rx="32" ry="16" transform="rotate(26 156 102)"/><ellipse cx="88" cy="150" rx="28" ry="14" transform="rotate(12 88 150)"/><ellipse cx="168" cy="150" rx="28" ry="14" transform="rotate(-12 168 150)"/></g><g fill="#f0c532" stroke="#bf8f00" stroke-width="2"><circle cx="84" cy="126" r="10"/><circle cx="102" cy="116" r="10"/><circle cx="122" cy="128" r="10"/><circle cx="145" cy="120" r="10"/><circle cx="168" cy="132" r="10"/><circle cx="98" cy="160" r="10"/><circle cx="124" cy="167" r="10"/><circle cx="150" cy="160" r="10"/></g></svg>