<svg xmlns="http://www.w3.org/2000/svg" viewBox="0 0 256 256"><defs><radialGradient id="bg" cx="45%" cy="28%" r="75%"><stop offset="0" stop-color="#fff7dd"/><stop offset="1" stop-color="#dfeccc"/></radialGradient></defs><rect width="256" height="256" rx="28" fill="url(#bg)"/><path d="M34 214 Q128 170 222 214 L206 231 H50Z" fill="#855230"/><g stroke="#2f5d25" stroke-width="5" fill="none" stroke-linecap="round"><path d="M128 72 C128 120 128 156 128 196"/><path d="M128 108 C95 120 80 138 64 168"/><path d="M128 102 C164 117 180 138 194 170"/></g><g fill="#3f7f33"><ellipse cx="101" cy="100" rx="30" ry="15" transform="rotate(-25 101 100)"/><ellipse cx="154" cy="102" rx="30" ry="15" transform="rotate(25 154 102)"/><ellipse cx="84" cy="148" rx="28" ry="14" transform="rotate(10 84 148)"/><ellipse cx="172" cy="148" rx="28" ry="14" transform="rotate(-10 172 148)"/></g><g fill="#d93628" stroke="#8a2118" stroke-width="2"><circle cx="84" cy="128" r="11"/><circle cx="102" cy="118" r="11"/><circle cx="122" cy="128" r="11"/><circle cx="144" cy="120" r="11"/><circle cx="166" cy="130" r="11"/><circle cx="94" cy="156" r="11"/><circle cx="120" cy="165" r="11"/><circle cx="148" cy="158" r="11"/></g></svg>